<svg xmlns="http://www.w3.org/2000/svg" viewBox="0 0 40 60" width="40" height="60">
  <!-- Client Normal - Mini chibi person (cyan) -->

  <!-- Shadow -->
  <ellipse cx="20" cy="58" rx="10" ry="2" fill="rgba(0,0,0,0.15)"/>

  <!-- Legs -->
  <rect x="12" y="42" width="6" height="12" rx="3" fill="#555"/>
  <rect x="22" y="42" width="6" height="12" rx="3" fill="#555"/>
  <!-- Shoes -->
  <rect x="10" y="52" width="9" height="5" rx="2" fill="#333"/>
  <rect x="21" y="52" width="9" height="5" rx="2" fill="#333"/>

  <!-- Body -->
  <rect x="10" y="28" width="20" height="18" rx="4" fill="#00CED1"/>

  <!-- Arms -->
  <rect x="4" y="30" width="7" height="14" rx="3" fill="#00CED1"/>
  <rect x="29" y="30" width="7" height="14" rx="3" fill="#00CED1"/>
  <!-- Hands -->
  <circle cx="7" cy="46" r="3" fill="#FFD5A0"/>
  <circle cx="33" cy="46" r="3" fill="#FFD5A0"/>

  <!-- Head -->
  <rect x="6" y="2" width="28" height="28" rx="6" fill="#FFD5A0"/>

  <!-- Hair -->
  <rect x="6" y="0" width="28" height="10" rx="5" fill="#8B6847"/>

  <!-- Eyes -->
  <circle cx="14" cy="16" r="5" fill="#FFF"/>
  <circle cx="26" cy="16" r="5" fill="#FFF"/>
  <circle cx="15" cy="17" r="2.5" fill="#333"/>
  <circle cx="27" cy="17" r="2.5" fill="#333"/>
  <circle cx="13" cy="14" r="1.2" fill="#FFF"/>
  <circle cx="25" cy="14" r="1.2" fill="#FFF"/>

  <!-- Mouth -->
  <path d="M15 24 Q20 28 25 24" fill="none" stroke="#C0392B" stroke-width="1.5" stroke-linecap="round"/>
</svg>